<svg xmlns="http://www.w3.org/2000/svg" xmlns:xlink="http://www.w3.org/1999/xlink">
    <symbol id="contact" viewBox="0 0 512.001 512.001">
        <path d="M90,276.001c-5.52,0-10,4.48-10,10c0,5.52,4.48,10,10,10s10-4.48,10-10C100,280.48,95.52,276.001,90,276.001z" />
        <path d="M508.484,118.389l-55.14-46.96c-0.367-0.313-0.757-0.599-1.166-0.855c-4.763-2.992-10.268-4.573-15.918-4.573H306v-26
			c0-22.056-17.944-40-40-40c-22.056,0-40,17.944-40,40v26h-10c-16.542,0-30,13.458-30,30v60c0,16.542,13.458,30,30,30h10v40H75.74
			c-5.65,0-11.155,1.581-15.917,4.571c-0.409,0.257-0.799,0.542-1.167,0.855l-55.14,46.96C1.285,280.288,0,283.069,0,286.001
			c0,2.931,1.285,5.713,3.516,7.613l55.14,46.96c0.368,0.313,0.757,0.599,1.167,0.855c4.762,2.991,10.267,4.572,15.917,4.572H226
			v106h-30c-16.542,0-30,13.458-30,30v20c0,5.522,4.477,10,10,10h180c5.522,0,10-4.478,10-10v-20c0-16.542-13.458-30-30-30h-30
			V344.28c11.639-4.128,20-15.243,20-28.28v-60c0-13.036-8.361-24.152-20-28.28v-41.72h130.26c5.65,0,11.155-1.581,15.918-4.571
			c0.409-0.257,0.799-0.542,1.166-0.855l55.14-46.96c2.231-1.9,3.517-4.683,3.517-7.613
			C512.001,123.072,510.716,120.289,508.484,118.389z M246,40.001c0-11.028,8.972-20,20-20s20,8.972,20,20v26h-40V40.001z
			 M336,472.001c5.514,0,10,4.486,10,10v10H186v-10c0-5.514,4.486-10,10-10H336z M246,452.001v-106h40v106H246z M306,316.001
			c0,5.514-4.486,10-10,10H75.74c-1.681,0-3.316-0.415-4.766-1.206l-45.551-38.794l45.552-38.794
			c1.45-0.791,3.085-1.206,4.766-1.206H296c5.514,0,10,4.486,10,10V316.001z M246,226.001v-40h40v40H246z M441.026,164.795
			c-1.45,0.791-3.086,1.206-4.767,1.206H216c-5.514,0-10-4.486-10-10v-60c0-5.514,4.486-10,10-10h220.26
			c1.681,0,3.316,0.415,4.767,1.206l45.55,38.794L441.026,164.795z" />
        <path d="M382,116.001H236c-5.523,0-10,4.478-10,10c0,5.522,4.477,10,10,10h146c5.522,0,10-4.478,10-10
			C392,120.478,387.522,116.001,382,116.001z" />
        <path d="M422,116.001c-5.52,0-10,4.48-10,10c0,5.52,4.48,10,10,10c5.52,0,10-4.48,10-10S427.52,116.001,422,116.001z" />
        <path d="M276,276.001H130c-5.523,0-10,4.478-10,10c0,5.522,4.477,10,10,10h146c5.522,0,10-4.478,10-10
			C286,280.478,281.522,276.001,276,276.001z" />
    </symbol>
    <symbol id="exit" viewBox="0 0 511.999 511.999">
        <path d="M215.752,285.999h-39.75v-20h25.953c5.522,0,10-4.477,10-10c0-5.523-4.478-10-10-10h-25.953V226h39.75
			c5.522,0,10-4.477,10-10s-4.478-10-10-10h-49.75c-5.522,0-10,4.477-10,10v79.999c0,5.523,4.477,10,10,10h49.75
			c5.522,0,10-4.477,10-10S221.274,285.999,215.752,285.999z" />
        <path d="M294.262,256l22.324-34.575c2.995-4.64,1.663-10.83-2.977-13.825c-4.641-2.996-10.829-1.663-13.826,2.977l-17.426,26.988
			l-17.425-26.988c-2.996-4.639-9.184-5.975-13.826-2.977c-4.64,2.996-5.972,9.186-2.977,13.825L270.454,256l-22.324,34.575
			c-2.995,4.64-1.663,10.83,2.976,13.825c1.678,1.083,3.557,1.601,5.415,1.601c3.282,0,6.498-1.615,8.411-4.577l17.425-26.988
			l17.426,26.988c1.913,2.963,5.128,4.577,8.411,4.577c1.858,0,3.737-0.518,5.415-1.601c4.64-2.996,5.972-9.186,2.977-13.825
			L294.262,256z" />
        <path d="M354.34,206c-5.522,0-10,4.477-10,10v79.999c0,5.523,4.477,10,10,10c5.522,0,10-4.477,10-10V216
			C364.34,210.477,359.862,206,354.34,206z" />
        <path d="M446.001,206h-49.75c-5.522,0-10,4.477-10,10s4.477,10,10,10h14.875v69.999c0,5.523,4.478,10,10,10
			c5.522,0,10-4.477,10-10V226h14.875c5.522,0,10-4.477,10-10S451.523,206,446.001,206z" />
        <path d="M501.999,146H92.006c-2.995,0-5.833,1.343-7.732,3.659L2.267,249.657c-3.023,3.687-3.023,8.996,0,12.682L84.274,362.34
			c1.899,2.316,4.737,3.659,7.732,3.659h409.993c5.523,0,10-4.477,10-10V156C511.999,150.477,507.521,146,501.999,146z M491.999,346
			H96.738l-73.807-90.001L96.737,166h395.262V346z" />
        <path d="M72.066,260.723l-0.149-0.183c-3.496-4.273-9.798-4.905-14.071-1.407c-4.274,3.497-4.904,9.797-1.407,14.072l0.149,0.183
			c1.977,2.416,4.849,3.667,7.745,3.667c2.227,0,4.469-0.74,6.326-2.261C74.934,271.298,75.563,264.997,72.066,260.723z" />
        <path d="M116.3,314.658l-26.021-31.73c-3.502-4.27-9.802-4.893-14.073-1.391s-4.894,9.803-1.392,14.073l26.021,31.73
			c1.978,2.411,4.846,3.659,7.738,3.659c2.23,0,4.476-0.743,6.335-2.268C119.179,325.229,119.802,318.928,116.3,314.658z" />
    </symbol>
</svg>