<svg xmlns="http://www.w3.org/2000/svg" xmlns:xlink="http://www.w3.org/1999/xlink">
    <symbol id="contact" viewBox="0 0 512.001 512.001">
        <path d="M90,276.001c-5.52,0-10,4.48-10,10c0,5.52,4.48,10,10,10s10-4.48,10-10C100,280.48,95.52,276.001,90,276.001z" />
        <path d="M508.484,118.389l-55.14-46.96c-0.367-0.313-0.757-0.599-1.166-0.855c-4.763-2.992-10.268-4.573-15.918-4.573H306v-26
			c0-22.056-17.944-40-40-40c-22.056,0-40,17.944-40,40v26h-10c-16.542,0-30,13.458-30,30v60c0,16.542,13.458,30,30,30h10v40H75.74
			c-5.65,0-11.155,1.581-15.917,4.571c-0.409,0.257-0.799,0.542-1.167,0.855l-55.14,46.96C1.285,280.288,0,283.069,0,286.001
			c0,2.931,1.285,5.713,3.516,7.613l55.14,46.96c0.368,0.313,0.757,0.599,1.167,0.855c4.762,2.991,10.267,4.572,15.917,4.572H226
			v106h-30c-16.542,0-30,13.458-30,30v20c0,5.522,4.477,10,10,10h180c5.522,0,10-4.478,10-10v-20c0-16.542-13.458-30-30-30h-30
			V344.28c11.639-4.128,20-15.243,20-28.28v-60c0-13.036-8.361-24.152-20-28.28v-41.72h130.26c5.65,0,11.155-1.581,15.918-4.571
			c0.409-0.257,0.799-0.542,1.166-0.855l55.14-46.96c2.231-1.9,3.517-4.683,3.517-7.613
			C512.001,123.072,510.716,120.289,508.484,118.389z M246,40.001c0-11.028,8.972-20,20-20s20,8.972,20,20v26h-40V40.001z
			 M336,472.001c5.514,0,10,4.486,10,10v10H186v-10c0-5.514,4.486-10,10-10H336z M246,452.001v-106h40v106H246z M306,316.001
			c0,5.514-4.486,10-10,10H75.74c-1.681,0-3.316-0.415-4.766-1.206l-45.551-38.794l45.552-38.794
			c1.45-0.791,3.085-1.206,4.766-1.206H296c5.514,0,10,4.486,10,10V316.001z M246,226.001v-40h40v40H246z M441.026,164.795
			c-1.45,0.791-3.086,1.206-4.767,1.206H216c-5.514,0-10-4.486-10-10v-60c0-5.514,4.486-10,10-10h220.26
			c1.681,0,3.316,0.415,4.767,1.206l45.55,38.794L441.026,164.795z" />
        <path d="M382,116.001H236c-5.523,0-10,4.478-10,10c0,5.522,4.477,10,10,10h146c5.522,0,10-4.478,10-10
			C392,120.478,387.522,116.001,382,116.001z" />
        <path d="M422,116.001c-5.52,0-10,4.48-10,10c0,5.52,4.48,10,10,10c5.52,0,10-4.48,10-10S427.52,116.001,422,116.001z" />
        <path d="M276,276.001H130c-5.523,0-10,4.478-10,10c0,5.522,4.477,10,10,10h146c5.522,0,10-4.478,10-10
			C286,280.478,281.522,276.001,276,276.001z" />
    </symbol>
    <symbol id="exit" viewBox="0 0 511.999 511.999">
        <path d="M215.752,285.999h-39.75v-20h25.953c5.522,0,10-4.477,10-10c0-5.523-4.478-10-10-10h-25.953V226h39.75
			c5.522,0,10-4.477,10-10s-4.478-10-10-10h-49.75c-5.522,0-10,4.477-10,10v79.999c0,5.523,4.477,10,10,10h49.75
			c5.522,0,10-4.477,10-10S221.274,285.999,215.752,285.999z" />
        <path d="M294.262,256l22.324-34.575c2.995-4.64,1.663-10.83-2.977-13.825c-4.641-2.996-10.829-1.663-13.826,2.977l-17.426,26.988
			l-17.425-26.988c-2.996-4.639-9.184-5.975-13.826-2.977c-4.64,2.996-5.972,9.186-2.977,13.825L270.454,256l-22.324,34.575
			c-2.995,4.64-1.663,10.83,2.976,13.825c1.678,1.083,3.557,1.601,5.415,1.601c3.282,0,6.498-1.615,8.411-4.577l17.425-26.988
			l17.426,26.988c1.913,2.963,5.128,4.577,8.411,4.577c1.858,0,3.737-0.518,5.415-1.601c4.64-2.996,5.972-9.186,2.977-13.825
			L294.262,256z" />
        <path d="M354.34,206c-5.522,0-10,4.477-10,10v79.999c0,5.523,4.477,10,10,10c5.522,0,10-4.477,10-10V216
			C364.34,210.477,359.862,206,354.34,206z" />
        <path d="M446.001,206h-49.75c-5.522,0-10,4.477-10,10s4.477,10,10,10h14.875v69.999c0,5.523,4.478,10,10,10
			c5.522,0,10-4.477,10-10V226h14.875c5.522,0,10-4.477,10-10S451.523,206,446.001,206z" />
        <path d="M501.999,146H92.006c-2.995,0-5.833,1.343-7.732,3.659L2.267,249.657c-3.023,3.687-3.023,8.996,0,12.682L84.274,362.34
			c1.899,2.316,4.737,3.659,7.732,3.659h409.993c5.523,0,10-4.477,10-10V156C511.999,150.477,507.521,146,501.999,146z M491.999,346
			H96.738l-73.807-90.001L96.737,166h395.262V346z" />
        <path d="M72.066,260.723l-0.149-0.183c-3.496-4.273-9.798-4.905-14.071-1.407c-4.274,3.497-4.904,9.797-1.407,14.072l0.149,0.183
			c1.977,2.416,4.849,3.667,7.745,3.667c2.227,0,4.469-0.74,6.326-2.261C74.934,271.298,75.563,264.997,72.066,260.723z" />
        <path d="M116.3,314.658l-26.021-31.73c-3.502-4.27-9.802-4.893-14.073-1.391s-4.894,9.803-1.392,14.073l26.021,31.73
			c1.978,2.411,4.846,3.659,7.738,3.659c2.23,0,4.476-0.743,6.335-2.268C119.179,325.229,119.802,318.928,116.3,314.658z" />
    </symbol>
	<symbol id="search" viewBox="0 0 512 512">
		<path d="M495.709,421.236L365.382,301.382c-9.309-8.145-23.273-8.145-32.582,1.164l-6.982,6.982l-19.782-19.782
			c27.927-31.418,43.055-72.145,43.055-115.2C349.091,77.964,271.127,0,174.545,0S0,77.964,0,174.545
			s77.964,174.545,174.545,174.545c30.255,0,60.509-8.146,87.273-23.273c5.818-3.491,6.982-10.473,4.655-16.291
			c-3.491-5.818-10.473-6.982-16.291-4.655c-23.273,12.8-48.873,19.782-75.636,19.782c-83.782,1.164-151.273-66.327-151.273-150.109
			S90.764,23.273,174.545,23.273s151.273,67.491,151.273,151.273c0,39.564-15.127,77.964-43.055,105.891
			c-2.327,2.327-3.491,4.655-3.491,8.145v2.327c0,3.491,1.164,5.818,3.491,8.145l26.764,26.764l-6.982,6.982
			c-9.309,9.309-9.309,23.273-1.164,32.582l119.855,130.327c9.309,10.473,23.273,16.291,38.4,16.291
			C488.727,512,512,488.727,512,459.636C512,445.673,506.182,431.709,495.709,421.236z M459.636,488.727
			c-8.145,0-16.291-3.491-20.945-9.309L318.836,349.091l30.255-30.255l130.327,119.855c5.818,5.818,9.309,12.8,9.309,20.945
			C488.727,475.927,475.927,488.727,459.636,488.727z" />
		<path d="M174.545,46.545c-70.982,0-128,57.018-128,128s57.018,128,128,128s128-57.018,128-128S245.527,46.545,174.545,46.545z
			 M174.545,279.273c-58.182,0-104.727-46.545-104.727-104.727S116.364,69.818,174.545,69.818s104.727,46.545,104.727,104.727
			S232.727,279.273,174.545,279.273z" />
	</symbol>
	<symbol id="back" viewBox="0 0 489 489">
		<path d="M429.4,255.033c-35.4-43.1-102.1-94.4-219.7-98.8v-79.8c0-4.7-2.7-9.1-7-11.1s-9.4-1.4-13,1.6L4.5,219.633
			c-2.8,2.3-4.5,5.8-4.5,9.4c0,3.7,1.6,7.1,4.4,9.4l185.2,153.3c3.7,3,8.7,3.7,13,1.6c4.3-2,7-6.3,7-11.1v-79.5
			c76.8,0.3,194.2,6,256.5,115.9c2.2,3.9,6.3,6.2,10.7,6.2c1,0,2.1-0.1,3.1-0.4c5.4-1.4,9.1-6.3,9.1-11.8
			C489.1,371.533,473.4,308.633,429.4,255.033z M197.4,278.233L197.4,278.233c-3.3,0-6.4,1.3-8.7,3.6s-3.6,5.4-3.6,8.7v65.7
			l-153.5-127.1l153.6-126.7v65.7c0,6.7,5.4,12.2,12.1,12.3c176,1.7,241.6,109,260.7,184.4
			C382.2,278.333,268.7,278.233,197.4,278.233z" />
	</symbol>
	<symbol id="lock" viewBox="0 0 512 512">
		<path d="M230.792,354.313l-6.729,60.51c-0.333,3.01,0.635,6.031,2.656,8.292c2.021,2.26,4.917,3.552,7.948,3.552h42.667
			c3.031,0,5.927-1.292,7.948-3.552c2.021-2.26,2.99-5.281,2.656-8.292l-6.729-60.51c10.927-7.948,17.458-20.521,17.458-34.313
			c0-23.531-19.135-42.667-42.667-42.667S213.333,296.469,213.333,320C213.333,333.792,219.865,346.365,230.792,354.313z
				M256,298.667c11.76,0,21.333,9.573,21.333,21.333c0,8.177-4.646,15.5-12.125,19.125c-4.073,1.979-6.458,6.292-5.958,10.781
			l6.167,55.427h-18.833l6.167-55.427c0.5-4.49-1.885-8.802-5.958-10.781c-7.479-3.625-12.125-10.948-12.125-19.125
			C234.667,308.24,244.24,298.667,256,298.667z"/>
		<path d="M437.333,192h-32v-42.667C405.333,66.99,338.344,0,256,0S106.667,66.99,106.667,149.333V192h-32
			C68.771,192,64,196.771,64,202.667v266.667C64,492.865,83.135,512,106.667,512h298.667C428.865,512,448,492.865,448,469.333
			V202.667C448,196.771,443.229,192,437.333,192z M128,149.333c0-70.583,57.417-128,128-128s128,57.417,128,128V192h-21.333
			v-42.667c0-58.813-47.854-106.667-106.667-106.667S149.333,90.521,149.333,149.333V192H128V149.333z M341.333,149.333V192
			H170.667v-42.667C170.667,102.281,208.948,64,256,64S341.333,102.281,341.333,149.333z M426.667,469.333
			c0,11.76-9.573,21.333-21.333,21.333H106.667c-11.76,0-21.333-9.573-21.333-21.333v-256h341.333V469.333z"/>
	</symbol>
	<symbol id="send" viewBox="0 0 511.994 511.994">
		<path d="M511.986,56.391c0.003-0.061,0.005-0.121,0.007-0.182c0.002-0.07-0.002-0.139-0.002-0.209c0-0.13,0.002-0.26-0.004-0.389
			c-0.005-0.11-0.017-0.219-0.027-0.328c-0.001-0.014-0.002-0.029-0.004-0.043c-0.006-0.063-0.008-0.127-0.016-0.19
			c-0.008-0.071-0.018-0.141-0.028-0.211c-0.015-0.103-0.037-0.205-0.056-0.308c-0.026-0.143-0.051-0.286-0.086-0.428
			c-0.004-0.015-0.007-0.03-0.011-0.045c-0.025-0.1-0.058-0.198-0.087-0.298c-0.04-0.139-0.079-0.277-0.127-0.414
			c-0.023-0.066-0.049-0.13-0.073-0.195c-0.023-0.06-0.049-0.117-0.073-0.177c0-0.001-0.001-0.003-0.002-0.004
			c-0.046-0.113-0.089-0.226-0.14-0.337c-0.057-0.124-0.123-0.243-0.186-0.364c-0.031-0.06-0.061-0.12-0.094-0.179
			c-0.028-0.05-0.053-0.1-0.082-0.149c-0.099-0.167-0.209-0.33-0.32-0.491c-0.036-0.052-0.066-0.107-0.103-0.159
			c-0.002-0.003-0.004-0.005-0.006-0.008c-0.005-0.007-0.011-0.014-0.016-0.021c-0.099-0.135-0.21-0.264-0.319-0.394
			c-0.068-0.081-0.132-0.167-0.202-0.244c-0.031-0.034-0.065-0.067-0.097-0.102c-0.05-0.054-0.105-0.104-0.157-0.156
			c-0.11-0.111-0.218-0.224-0.333-0.328c-0.007-0.007-0.014-0.014-0.021-0.021c-0.047-0.042-0.097-0.076-0.145-0.116
			c-0.022-0.019-0.045-0.037-0.068-0.056c-0.034-0.029-0.063-0.062-0.098-0.09c-0.023-0.018-0.048-0.031-0.071-0.05
			c-0.075-0.059-0.148-0.119-0.224-0.175c-0.074-0.054-0.152-0.101-0.227-0.153c-0.14-0.095-0.28-0.191-0.425-0.276
			c-0.106-0.063-0.216-0.117-0.324-0.174c-0.118-0.063-0.235-0.127-0.356-0.184c-0.05-0.023-0.1-0.047-0.151-0.069
			c-0.032-0.014-0.064-0.024-0.096-0.038c-0.052-0.022-0.104-0.041-0.156-0.062c-0.102-0.041-0.203-0.084-0.306-0.121
			c-0.111-0.04-0.223-0.072-0.335-0.106c-0.065-0.02-0.129-0.04-0.195-0.058c-0.069-0.019-0.138-0.04-0.208-0.058
			c-0.148-0.037-0.297-0.064-0.447-0.093c-0.084-0.016-0.167-0.038-0.252-0.051c-0.022-0.003-0.045-0.004-0.067-0.008
			c-0.138-0.02-0.277-0.032-0.415-0.045c-0.119-0.011-0.237-0.024-0.356-0.031c-0.054-0.003-0.107-0.006-0.161-0.007
			c-0.063-0.002-0.126,0.002-0.189,0.002c-0.009,0-0.018,0-0.027,0c-0.134,0-0.268-0.002-0.402,0.004
			c-0.107,0.005-0.214,0.017-0.321,0.026c-0.071,0.006-0.142,0.01-0.213,0.018c-0.08,0.009-0.159,0.018-0.238,0.03
			c-0.106,0.015-0.211,0.038-0.317,0.057c-0.132,0.025-0.265,0.046-0.396,0.077c-0.015,0.004-0.03,0.009-0.046,0.013
			c-0.111,0.027-0.221,0.062-0.331,0.094c-0.135,0.039-0.27,0.077-0.403,0.124c-0.065,0.022-0.128,0.048-0.192,0.072
			c-0.017,0.006-0.034,0.01-0.051,0.016l-496,192c-3.084,1.194-5.116,4.162-5.112,7.469c0.003,3.307,2.042,6.271,5.128,7.458
			l147.877,56.876l47.385,146.125c0.007,0.021,0.018,0.039,0.025,0.059c0.014,0.043,0.024,0.087,0.039,0.13
			c0.112,0.319,0.251,0.629,0.404,0.934c0.032,0.063,0.065,0.124,0.098,0.186c0.149,0.279,0.313,0.551,0.497,0.813
			c0.024,0.035,0.045,0.072,0.07,0.106c0.012,0.017,0.024,0.034,0.037,0.051c0.014,0.018,0.029,0.034,0.043,0.053
			c0.06,0.08,0.127,0.157,0.191,0.235c0.076,0.094,0.148,0.19,0.228,0.281c0.062,0.069,0.13,0.133,0.195,0.2
			c0.03,0.031,0.06,0.062,0.09,0.093c0.046,0.046,0.089,0.095,0.136,0.14c0.049,0.047,0.096,0.095,0.146,0.141
			c0.048,0.044,0.1,0.084,0.15,0.126c0.154,0.135,0.31,0.266,0.474,0.39c0.01,0.008,0.019,0.016,0.029,0.024
			c0.015,0.011,0.033,0.019,0.048,0.03c0.05,0.036,0.101,0.069,0.151,0.104c0.257,0.179,0.527,0.344,0.808,0.493
			c0.046,0.024,0.089,0.055,0.135,0.078c0.015,0.008,0.03,0.013,0.045,0.021c0.264,0.131,0.535,0.252,0.819,0.356
			c0.06,0.022,0.121,0.037,0.181,0.057c0.079,0.027,0.158,0.051,0.238,0.075c0.344,0.105,0.69,0.19,1.037,0.248
			c0.016,0.003,0.031,0.008,0.047,0.011c0.033,0.005,0.066,0.004,0.099,0.009c0.383,0.056,0.767,0.09,1.147,0.09c0,0,0.001,0,0.001,0
			h0c0,0,0,0,0.001,0c0.031,0,0.061-0.007,0.092-0.007c0.329-0.004,0.657-0.031,0.983-0.075c0.049-0.007,0.099-0.006,0.147-0.013
			c0.07-0.011,0.14-0.036,0.21-0.049c0.253-0.046,0.503-0.104,0.751-0.175c0.081-0.023,0.163-0.038,0.243-0.063
			c0.014-0.004,0.028-0.006,0.042-0.01c0.038-0.012,0.074-0.03,0.112-0.043c0.119-0.04,0.235-0.088,0.352-0.134
			c0.156-0.062,0.311-0.125,0.461-0.195c0.023-0.01,0.046-0.018,0.069-0.029c0.013-0.007,0.028-0.011,0.041-0.017
			c0.075-0.036,0.146-0.08,0.22-0.119c0.155-0.081,0.306-0.167,0.454-0.257c0.098-0.06,0.195-0.12,0.29-0.184
			c0.001-0.001,0.002-0.001,0.003-0.002c0.028-0.019,0.057-0.035,0.085-0.054c0.133-0.092,0.259-0.193,0.386-0.292
			c0.074-0.058,0.149-0.112,0.221-0.173c0.079-0.067,0.155-0.138,0.231-0.208c0.059-0.053,0.115-0.109,0.173-0.165
			c0.246-0.239,0.48-0.489,0.693-0.756c0.018-0.022,0.037-0.043,0.055-0.066c0.023-0.03,0.043-0.063,0.065-0.093
			c0.017-0.022,0.037-0.041,0.054-0.064l58.457-78.995c2.628-3.552,1.88-8.561-1.672-11.189c-3.551-2.628-8.562-1.879-11.189,1.672
			l-25.398,34.322l20.186-55.106l191.072,72.521c0.918,0.348,1.88,0.521,2.838,0.521c1.399,0,2.792-0.367,4.031-1.089
			c2.086-1.217,3.511-3.311,3.877-5.698l55.275-360.502c0.003-0.017,0.002-0.034,0.004-0.051c0.019-0.133,0.03-0.266,0.043-0.399
			C511.967,56.634,511.98,56.513,511.986,56.391z M449.557,85.646L221.052,251.603c-3.575,2.596-4.368,7.599-1.772,11.174
			c1.565,2.155,4.005,3.299,6.479,3.299c1.63,0,3.275-0.497,4.695-1.528l218.284-158.534L244.445,335.408
			c-0.793,0.782-1.44,1.738-1.861,2.848c-0.072,0.188-0.127,0.379-0.184,0.569l-33.94,92.653l-41.413-127.707
			c-0.773-2.384-2.56-4.154-4.728-4.993c-0.012-0.005-0.023-0.011-0.036-0.016L30.223,247.969L449.557,85.646z M442.316,405.506
			l-178.528-67.76L491.995,81.501L442.316,405.506z"/>
		<path d="M185.506,295.311c1.63,0,3.275-0.497,4.695-1.528l15.55-11.294c3.575-2.596,4.368-7.599,1.772-11.174
			c-2.597-3.575-7.6-4.368-11.174-1.772l-15.55,11.294c-3.575,2.596-4.368,7.599-1.772,11.174
			C180.592,294.167,183.032,295.311,185.506,295.311z"/>
	</symbol>
	<symbol id="inbox" viewBox="0 0 512 512">
		<path d="M512,255.117c0-3.531-1.765-5.297-5.297-7.062L12.359,0.883h-0.883L10.593,0C9.71,0,8.828,0,8.828,0
			C7.945,0,7.945,0,7.062,0S6.179,0,5.297,0.883H4.414c0,0,0,0-0.883,0L2.648,1.766L1.766,2.648v0.883
			c0,0.883-0.883,0.883-0.883,1.766s0,0.883,0,1.766C0,7.945,0,8.828,0,8.828C0,9.71,0,9.71,0,10.593v0.883l141.241,494.345
			c0.883,2.648,3.531,5.297,6.179,6.179c0.883,0,1.766,0,2.648,0c2.648,0,4.414-0.883,6.179-2.648l97.986-97.986l64.441,97.103
			c0.883,0.883,0.883,1.766,1.766,1.766c0,0,0,0,0.883,0s0.883,0.883,1.766,0.883h0.883c0.883,0,1.766,0,2.648,0c0,0,0,0,0.883,0
			s1.766,0,1.766,0s0.883,0,0.883-0.883c0,0,0.883,0,0.883-0.883c0.883-0.883,0.883-0.883,1.766-1.766c0,0,0-0.883,0.883-0.883
			c0.883-0.883,0.883-1.766,0.883-2.648l34.428-172.138l137.71-68.855C509.352,261.297,512,258.648,512,255.117z M154.483,486.4
			L29.131,48.552l249.821,312.497L154.483,486.4z M268.359,399.007l18.538-19.421l19.421,76.8L268.359,399.007z M325.738,462.566
			l-25.6-102.4c0-0.883-0.883-1.766-0.883-2.648v-0.883L82.979,87.393l269.241,241.876L325.738,462.566z M363.697,316.028
			L63.559,45.903L483.752,256L363.697,316.028z"/>
		<path d="M17.655,218.924c-0.883-4.414-6.179-7.945-10.593-6.179c-4.414,0.883-7.945,6.179-6.179,10.593l35.31,141.241
			c0,3.531,4.414,6.179,7.945,6.179c0.883,0,1.766,0,1.766,0c4.414-0.883,7.945-6.179,6.179-10.593L17.655,218.924z"/>
		<path d="M145.655,15.89l70.621,35.31c1.766,1.766,2.648,1.766,4.414,1.766c3.531,0,6.179-1.766,7.945-5.297
			c1.766-4.414,0-9.71-3.531-11.476L153.6,0.883c-4.414-1.766-9.71,0-11.476,3.531C140.359,8.828,142.124,14.124,145.655,15.89z"/>
		<path d="M403.421,355.752c-3.531-3.531-8.828-3.531-12.359,0c-3.531,3.531-3.531,8.828,0,12.359l35.31,35.31
			c1.766,1.766,4.414,2.648,6.179,2.648c1.766,0,4.414-0.883,6.179-2.648c3.531-3.531,3.531-8.828,0-12.359L403.421,355.752z"/>
		<path d="M403.421,426.372c-3.531-3.531-8.828-3.531-12.359,0c-3.531,3.531-3.531,8.828,0,12.359l35.31,35.31
			c1.766,1.766,4.414,2.648,6.179,2.648c1.766,0,4.414-0.883,6.179-2.648c3.531-3.531,3.531-8.828,0-12.359L403.421,426.372z"/>
		<path d="M509.352,391.062l-70.621-70.621c-3.531-3.531-8.828-3.531-12.359,0c-3.531,3.531-3.531,8.828,0,12.359l70.621,70.621
			c1.766,1.766,4.414,2.648,6.179,2.648c1.766,0,4.414-0.883,6.179-2.648C512.883,399.89,512.883,394.593,509.352,391.062z"/>
	</symbol>
</svg>