<svg xmlns="http://www.w3.org/2000/svg"><symbol id="contact" viewBox="0 0 512.001 512.001"><path d="M90 276.001c-5.52 0-10 4.48-10 10s4.48 10 10 10 10-4.48 10-10c0-5.521-4.48-10-10-10z"/><path d="M508.484 118.389l-55.14-46.96a9.856 9.856 0 0 0-1.166-.855 29.884 29.884 0 0 0-15.918-4.573H306v-26c0-22.056-17.944-40-40-40s-40 17.944-40 40v26h-10c-16.542 0-30 13.458-30 30v60c0 16.542 13.458 30 30 30h10v40H75.74a29.894 29.894 0 0 0-15.917 4.571c-.409.257-.799.542-1.167.855l-55.14 46.96a10 10 0 0 0 0 15.227l55.14 46.96c.368.313.757.599 1.167.855a29.886 29.886 0 0 0 15.917 4.572H226v106h-30c-16.542 0-30 13.458-30 30v20c0 5.522 4.477 10 10 10h180c5.522 0 10-4.478 10-10v-20c0-16.542-13.458-30-30-30h-30V344.28c11.639-4.128 20-15.243 20-28.28v-60c0-13.036-8.361-24.152-20-28.28V186h130.26a29.9 29.9 0 0 0 15.918-4.571 9.969 9.969 0 0 0 1.166-.855l55.14-46.96a9.997 9.997 0 0 0 0-15.225zM246 40.001c0-11.028 8.972-20 20-20s20 8.972 20 20v26h-40v-26zm90 432c5.514 0 10 4.486 10 10v10H186v-10c0-5.514 4.486-10 10-10h140zm-90-20v-106h40v106h-40zm60-136c0 5.514-4.486 10-10 10H75.74a9.937 9.937 0 0 1-4.766-1.206l-45.551-38.794 45.552-38.794a9.937 9.937 0 0 1 4.766-1.206H296c5.514 0 10 4.486 10 10v60zm-60-90v-40h40v40h-40zm195.026-61.206a9.941 9.941 0 0 1-4.767 1.206H216c-5.514 0-10-4.486-10-10v-60c0-5.514 4.486-10 10-10h220.26c1.681 0 3.316.415 4.767 1.206l45.55 38.794-45.551 38.794z"/><path d="M382 116.001H236c-5.523 0-10 4.478-10 10s4.477 10 10 10h146c5.522 0 10-4.478 10-10 0-5.523-4.478-10-10-10zM422 116.001c-5.52 0-10 4.48-10 10s4.48 10 10 10 10-4.48 10-10-4.48-10-10-10zM276 276.001H130c-5.523 0-10 4.478-10 10s4.477 10 10 10h146c5.522 0 10-4.478 10-10 0-5.523-4.478-10-10-10z"/></symbol><symbol id="exit" viewBox="0 0 511.999 511.999"><path d="M215.752 285.999h-39.75v-20h25.953c5.522 0 10-4.477 10-10s-4.478-10-10-10h-25.953V226h39.75c5.522 0 10-4.477 10-10s-4.478-10-10-10h-49.75c-5.522 0-10 4.477-10 10v79.999c0 5.523 4.477 10 10 10h49.75c5.522 0 10-4.477 10-10s-4.478-10-10-10zM294.262 256l22.324-34.575c2.995-4.64 1.663-10.83-2.977-13.825-4.641-2.996-10.829-1.663-13.826 2.977l-17.426 26.988-17.425-26.988c-2.996-4.639-9.184-5.975-13.826-2.977-4.64 2.996-5.972 9.186-2.977 13.825L270.454 256l-22.324 34.575c-2.995 4.64-1.663 10.83 2.976 13.825a9.995 9.995 0 0 0 13.826-2.976l17.425-26.988 17.426 26.988a9.991 9.991 0 0 0 8.411 4.577 9.956 9.956 0 0 0 5.415-1.601c4.64-2.996 5.972-9.186 2.977-13.825L294.262 256zM354.34 206c-5.522 0-10 4.477-10 10v79.999c0 5.523 4.477 10 10 10 5.522 0 10-4.477 10-10V216c0-5.523-4.478-10-10-10zM446.001 206h-49.75c-5.522 0-10 4.477-10 10s4.477 10 10 10h14.875v69.999c0 5.523 4.478 10 10 10s10-4.477 10-10V226h14.875c5.522 0 10-4.477 10-10s-4.478-10-10-10z"/><path d="M501.999 146H92.006a10 10 0 0 0-7.732 3.659L2.267 249.657a10 10 0 0 0 0 12.682L84.274 362.34a10 10 0 0 0 7.732 3.659h409.993c5.523 0 10-4.477 10-10V156c0-5.523-4.478-10-10-10zm-10 200H96.738l-73.807-90.001L96.737 166h395.262v180z"/><path d="M72.066 260.723l-.149-.183c-3.496-4.273-9.798-4.905-14.071-1.407-4.274 3.497-4.904 9.797-1.407 14.072l.149.183a9.98 9.98 0 0 0 7.745 3.667c2.227 0 4.469-.74 6.326-2.261 4.275-3.496 4.904-9.797 1.407-14.071zM116.3 314.658l-26.021-31.73c-3.502-4.27-9.802-4.893-14.073-1.391s-4.894 9.803-1.392 14.073l26.021 31.73a9.98 9.98 0 0 0 7.738 3.659c2.23 0 4.476-.743 6.335-2.268 4.271-3.502 4.894-9.803 1.392-14.073z"/></symbol><symbol id="search" viewBox="0 0 512 512"><path d="M495.709 421.236L365.382 301.382c-9.309-8.145-23.273-8.145-32.582 1.164l-6.982 6.982-19.782-19.782c27.927-31.418 43.055-72.145 43.055-115.2C349.091 77.964 271.127 0 174.545 0S0 77.964 0 174.545 77.964 349.09 174.545 349.09c30.255 0 60.509-8.146 87.273-23.273 5.818-3.491 6.982-10.473 4.655-16.291-3.491-5.818-10.473-6.982-16.291-4.655-23.273 12.8-48.873 19.782-75.636 19.782-83.782 1.164-151.273-66.327-151.273-150.109S90.764 23.273 174.545 23.273s151.273 67.491 151.273 151.273c0 39.564-15.127 77.964-43.055 105.891-2.327 2.327-3.491 4.655-3.491 8.145v2.327c0 3.491 1.164 5.818 3.491 8.145l26.764 26.764-6.982 6.982c-9.309 9.309-9.309 23.273-1.164 32.582l119.855 130.327c9.309 10.473 23.273 16.291 38.4 16.291C488.727 512 512 488.727 512 459.636c0-13.963-5.818-27.927-16.291-38.4zm-36.073 67.491c-8.145 0-16.291-3.491-20.945-9.309L318.836 349.091l30.255-30.255 130.327 119.855c5.818 5.818 9.309 12.8 9.309 20.945 0 16.291-12.8 29.091-29.091 29.091z"/><path d="M174.545 46.545c-70.982 0-128 57.018-128 128s57.018 128 128 128 128-57.018 128-128-57.018-128-128-128zm0 232.728c-58.182 0-104.727-46.545-104.727-104.727S116.364 69.818 174.545 69.818s104.727 46.545 104.727 104.727-46.545 104.728-104.727 104.728z"/></symbol><symbol id="back" viewBox="0 0 489 489"><path d="M429.4 255.033c-35.4-43.1-102.1-94.4-219.7-98.8v-79.8c0-4.7-2.7-9.1-7-11.1s-9.4-1.4-13 1.6L4.5 219.633c-2.8 2.3-4.5 5.8-4.5 9.4 0 3.7 1.6 7.1 4.4 9.4l185.2 153.3c3.7 3 8.7 3.7 13 1.6 4.3-2 7-6.3 7-11.1v-79.5c76.8.3 194.2 6 256.5 115.9 2.2 3.9 6.3 6.2 10.7 6.2 1 0 2.1-.1 3.1-.4 5.4-1.4 9.1-6.3 9.1-11.8.1-41.1-15.6-104-59.6-157.6zm-232 23.2c-3.3 0-6.4 1.3-8.7 3.6s-3.6 5.4-3.6 8.7v65.7l-153.5-127.1 153.6-126.7v65.7c0 6.7 5.4 12.2 12.1 12.3 176 1.7 241.6 109 260.7 184.4-75.8-86.5-189.3-86.6-260.6-86.6z"/></symbol><symbol id="lock" viewBox="0 0 512 512"><path d="M230.792 354.313l-6.729 60.51a10.67 10.67 0 0 0 10.604 11.844h42.667a10.67 10.67 0 0 0 10.604-11.844l-6.729-60.51c10.927-7.948 17.458-20.521 17.458-34.313 0-23.531-19.135-42.667-42.667-42.667S213.333 296.469 213.333 320c0 13.792 6.532 26.365 17.459 34.313zM256 298.667c11.76 0 21.333 9.573 21.333 21.333 0 8.177-4.646 15.5-12.125 19.125a10.673 10.673 0 0 0-5.958 10.781l6.167 55.427h-18.833l6.167-55.427c.5-4.49-1.885-8.802-5.958-10.781-7.479-3.625-12.125-10.948-12.125-19.125-.001-11.76 9.572-21.333 21.332-21.333z"/><path d="M437.333 192h-32v-42.667C405.333 66.99 338.344 0 256 0S106.667 66.99 106.667 149.333V192h-32A10.66 10.66 0 0 0 64 202.667v266.667C64 492.865 83.135 512 106.667 512h298.667C428.865 512 448 492.865 448 469.333V202.667A10.66 10.66 0 0 0 437.333 192zM128 149.333c0-70.583 57.417-128 128-128s128 57.417 128 128V192h-21.333v-42.667c0-58.813-47.854-106.667-106.667-106.667S149.333 90.521 149.333 149.333V192H128v-42.667zm213.333 0V192H170.667v-42.667C170.667 102.281 208.948 64 256 64s85.333 38.281 85.333 85.333zm85.334 320c0 11.76-9.573 21.333-21.333 21.333H106.667c-11.76 0-21.333-9.573-21.333-21.333v-256h341.333v256z"/></symbol><symbol id="send" viewBox="0 0 511.994 511.994"><path d="M511.986 56.391l.007-.182c.002-.07-.002-.139-.002-.209 0-.13.002-.26-.004-.389-.005-.11-.017-.219-.027-.328l-.004-.043c-.006-.063-.008-.127-.016-.19-.008-.071-.018-.141-.028-.211-.015-.103-.037-.205-.056-.308-.026-.143-.051-.286-.086-.428l-.011-.045c-.025-.1-.058-.198-.087-.298-.04-.139-.079-.277-.127-.414-.023-.066-.049-.13-.073-.195-.023-.06-.049-.117-.073-.177a.008.008 0 0 0-.002-.004c-.046-.113-.089-.226-.14-.337-.057-.124-.123-.243-.186-.364-.031-.06-.061-.12-.094-.179-.028-.05-.053-.1-.082-.149a8.592 8.592 0 0 0-.32-.491c-.036-.052-.066-.107-.103-.159l-.006-.008-.016-.021c-.099-.135-.21-.264-.319-.394-.068-.081-.132-.167-.202-.244l-.097-.102c-.05-.054-.105-.104-.157-.156-.11-.111-.218-.224-.333-.328l-.021-.021c-.047-.042-.097-.076-.145-.116l-.068-.056c-.034-.029-.063-.062-.098-.09-.023-.018-.048-.031-.071-.05-.075-.059-.148-.119-.224-.175-.074-.054-.152-.101-.227-.153-.14-.095-.28-.191-.425-.276-.106-.063-.216-.117-.324-.174-.118-.063-.235-.127-.356-.184-.05-.023-.1-.047-.151-.069-.032-.014-.064-.024-.096-.038-.052-.022-.104-.041-.156-.062-.102-.041-.203-.084-.306-.121-.111-.04-.223-.072-.335-.106-.065-.02-.129-.04-.195-.058-.069-.019-.138-.04-.208-.058-.148-.037-.297-.064-.447-.093-.084-.016-.167-.038-.252-.051-.022-.003-.045-.004-.067-.008-.138-.02-.277-.032-.415-.045-.119-.011-.237-.024-.356-.031-.054-.003-.107-.006-.161-.007-.063-.002-.126.002-.189.002h-.027c-.134 0-.268-.002-.402.004-.107.005-.214.017-.321.026-.071.006-.142.01-.213.018-.08.009-.159.018-.238.03-.106.015-.211.038-.317.057-.132.025-.265.046-.396.077l-.046.013c-.111.027-.221.062-.331.094-.135.039-.27.077-.403.124-.065.022-.128.048-.192.072l-.051.016-496 192a8 8 0 0 0 .016 14.927l147.877 56.876 47.385 146.125c.007.021.018.039.025.059.014.043.024.087.039.13a8 8 0 0 0 .404.934c.032.063.065.124.098.186.149.279.313.551.497.813.024.035.045.072.07.106l.037.051c.014.018.029.034.043.053.06.08.127.157.191.235.076.094.148.19.228.281.062.069.13.133.195.2l.09.093c.046.046.089.095.136.14.049.047.096.095.146.141.048.044.1.084.15.126.154.135.31.266.474.39l.029.024c.015.011.033.019.048.03.05.036.101.069.151.104.257.179.527.344.808.493.046.024.089.055.135.078l.045.021c.264.131.535.252.819.356.06.022.121.037.181.057a8.174 8.174 0 0 0 1.275.323l.047.011c.033.005.066.004.099.009.383.056.767.09 1.147.09h.002c.031 0 .061-.007.092-.007.329-.004.657-.031.983-.075.049-.007.099-.006.147-.013.07-.011.14-.036.21-.049.253-.046.503-.104.751-.175.081-.023.163-.038.243-.063l.042-.01c.038-.012.074-.03.112-.043.119-.04.235-.088.352-.134.156-.062.311-.125.461-.195.023-.01.046-.018.069-.029.013-.007.028-.011.041-.017.075-.036.146-.08.22-.119a8.044 8.044 0 0 0 .744-.441l.003-.002c.028-.019.057-.035.085-.054.133-.092.259-.193.386-.292.074-.058.149-.112.221-.173.079-.067.155-.138.231-.208.059-.053.115-.109.173-.165.246-.239.48-.489.693-.756l.055-.066c.023-.03.043-.063.065-.093.017-.022.037-.041.054-.064l58.457-78.995a8 8 0 0 0-12.861-9.517l-25.398 34.322 20.186-55.106 191.072 72.521a8.006 8.006 0 0 0 6.869-.568 8.001 8.001 0 0 0 3.877-5.698l55.275-360.502c.003-.017.002-.034.004-.051.019-.133.03-.266.043-.399.011-.121.024-.242.03-.364zm-62.429 29.255L221.052 251.603a8 8 0 1 0 9.402 12.945l218.284-158.534-204.293 229.394a7.95 7.95 0 0 0-1.861 2.848c-.072.188-.127.379-.184.569l-33.94 92.653-41.413-127.707a7.982 7.982 0 0 0-4.728-4.993l-.036-.016-132.06-50.793L449.557 85.646zm-7.241 319.86l-178.528-67.76L491.995 81.501l-49.679 324.005z"/><path d="M185.506 295.311c1.63 0 3.275-.497 4.695-1.528l15.55-11.294a8 8 0 0 0-9.402-12.946l-15.55 11.294a8 8 0 0 0 4.707 14.474z"/></symbol><symbol id="inbox" viewBox="0 0 512 512"><path d="M512 255.117c0-3.531-1.765-5.297-5.297-7.062L12.359.883h-.883L10.593 0H7.062c-.883 0-.883 0-1.765.883h-.883-.883l-.883.883-.882.882v.883c0 .883-.883.883-.883 1.766v1.766C0 7.945 0 8.828 0 8.828V11.476l141.241 494.345c.883 2.648 3.531 5.297 6.179 6.179h2.648c2.648 0 4.414-.883 6.179-2.648l97.986-97.986 64.441 97.103c.883.883.883 1.766 1.766 1.766h.883c.883 0 .883.883 1.766.883h6.18s.883 0 .883-.883c0 0 .883 0 .883-.883l1.766-1.766s0-.883.883-.883c.883-.883.883-1.766.883-2.648l34.428-172.138 137.71-68.855c2.647-1.765 5.295-4.414 5.295-7.945zM154.483 486.4L29.131 48.552l249.821 312.497L154.483 486.4zm113.876-87.393l18.538-19.421 19.421 76.8-37.959-57.379zm57.379 63.559l-25.6-102.4c0-.883-.883-1.766-.883-2.648v-.883L82.979 87.393 352.22 329.269l-26.482 133.297zm37.959-146.538L63.559 45.903 483.752 256l-120.055 60.028zM17.655 218.924c-.883-4.414-6.179-7.945-10.593-6.179-4.414.883-7.945 6.179-6.179 10.593l35.31 141.241c0 3.531 4.414 6.179 7.945 6.179h1.766c4.414-.883 7.945-6.179 6.179-10.593L17.655 218.924zM145.655 15.89l70.621 35.31c1.766 1.766 2.648 1.766 4.414 1.766 3.531 0 6.179-1.766 7.945-5.297 1.766-4.414 0-9.71-3.531-11.476L153.6.883c-4.414-1.766-9.71 0-11.476 3.531-1.765 4.414 0 9.71 3.531 11.476z"/><path d="M403.421 355.752c-3.531-3.531-8.828-3.531-12.359 0-3.531 3.531-3.531 8.828 0 12.359l35.31 35.31c1.766 1.766 4.414 2.648 6.179 2.648 1.766 0 4.414-.883 6.179-2.648 3.531-3.531 3.531-8.828 0-12.359l-35.309-35.31zM403.421 426.372c-3.531-3.531-8.828-3.531-12.359 0-3.531 3.531-3.531 8.828 0 12.359l35.31 35.31c1.766 1.766 4.414 2.648 6.179 2.648 1.766 0 4.414-.883 6.179-2.648 3.531-3.531 3.531-8.828 0-12.359l-35.309-35.31zM509.352 391.062l-70.621-70.621c-3.531-3.531-8.828-3.531-12.359 0-3.531 3.531-3.531 8.828 0 12.359l70.621 70.621c1.766 1.766 4.414 2.648 6.179 2.648 1.766 0 4.414-.883 6.179-2.648 3.532-3.531 3.532-8.828.001-12.359z"/></symbol><symbol id="message-send" viewBox="0 0 512 512"><path d="M481.508 210.336L68.414 38.926c-17.403-7.222-37.064-4.045-51.309 8.287C2.86 59.547-3.098 78.551 1.558 96.808L38.327 241h180.026c8.284 0 15.001 6.716 15.001 15.001 0 8.284-6.716 15.001-15.001 15.001H38.327L1.558 415.193c-4.656 18.258 1.301 37.262 15.547 49.595 14.274 12.357 33.937 15.495 51.31 8.287l413.094-171.409C500.317 293.862 512 276.364 512 256.001s-11.683-37.862-30.492-45.665z"/></symbol></svg>