<svg xmlns="http://www.w3.org/2000/svg"><symbol id="contact" viewBox="0 0 512.001 512.001"><path d="M90 276.001c-5.52 0-10 4.48-10 10s4.48 10 10 10 10-4.48 10-10c0-5.521-4.48-10-10-10z"/><path d="M508.484 118.389l-55.14-46.96a9.856 9.856 0 0 0-1.166-.855 29.884 29.884 0 0 0-15.918-4.573H306v-26c0-22.056-17.944-40-40-40s-40 17.944-40 40v26h-10c-16.542 0-30 13.458-30 30v60c0 16.542 13.458 30 30 30h10v40H75.74a29.894 29.894 0 0 0-15.917 4.571c-.409.257-.799.542-1.167.855l-55.14 46.96a10 10 0 0 0 0 15.227l55.14 46.96c.368.313.757.599 1.167.855a29.886 29.886 0 0 0 15.917 4.572H226v106h-30c-16.542 0-30 13.458-30 30v20c0 5.522 4.477 10 10 10h180c5.522 0 10-4.478 10-10v-20c0-16.542-13.458-30-30-30h-30V344.28c11.639-4.128 20-15.243 20-28.28v-60c0-13.036-8.361-24.152-20-28.28V186h130.26a29.9 29.9 0 0 0 15.918-4.571 9.969 9.969 0 0 0 1.166-.855l55.14-46.96a9.997 9.997 0 0 0 0-15.225zM246 40.001c0-11.028 8.972-20 20-20s20 8.972 20 20v26h-40v-26zm90 432c5.514 0 10 4.486 10 10v10H186v-10c0-5.514 4.486-10 10-10h140zm-90-20v-106h40v106h-40zm60-136c0 5.514-4.486 10-10 10H75.74a9.937 9.937 0 0 1-4.766-1.206l-45.551-38.794 45.552-38.794a9.937 9.937 0 0 1 4.766-1.206H296c5.514 0 10 4.486 10 10v60zm-60-90v-40h40v40h-40zm195.026-61.206a9.941 9.941 0 0 1-4.767 1.206H216c-5.514 0-10-4.486-10-10v-60c0-5.514 4.486-10 10-10h220.26c1.681 0 3.316.415 4.767 1.206l45.55 38.794-45.551 38.794z"/><path d="M382 116.001H236c-5.523 0-10 4.478-10 10s4.477 10 10 10h146c5.522 0 10-4.478 10-10 0-5.523-4.478-10-10-10zM422 116.001c-5.52 0-10 4.48-10 10s4.48 10 10 10 10-4.48 10-10-4.48-10-10-10zM276 276.001H130c-5.523 0-10 4.478-10 10s4.477 10 10 10h146c5.522 0 10-4.478 10-10 0-5.523-4.478-10-10-10z"/></symbol><symbol id="exit" viewBox="0 0 511.999 511.999"><path d="M215.752 285.999h-39.75v-20h25.953c5.522 0 10-4.477 10-10s-4.478-10-10-10h-25.953V226h39.75c5.522 0 10-4.477 10-10s-4.478-10-10-10h-49.75c-5.522 0-10 4.477-10 10v79.999c0 5.523 4.477 10 10 10h49.75c5.522 0 10-4.477 10-10s-4.478-10-10-10zM294.262 256l22.324-34.575c2.995-4.64 1.663-10.83-2.977-13.825-4.641-2.996-10.829-1.663-13.826 2.977l-17.426 26.988-17.425-26.988c-2.996-4.639-9.184-5.975-13.826-2.977-4.64 2.996-5.972 9.186-2.977 13.825L270.454 256l-22.324 34.575c-2.995 4.64-1.663 10.83 2.976 13.825a9.995 9.995 0 0 0 13.826-2.976l17.425-26.988 17.426 26.988a9.991 9.991 0 0 0 8.411 4.577 9.956 9.956 0 0 0 5.415-1.601c4.64-2.996 5.972-9.186 2.977-13.825L294.262 256zM354.34 206c-5.522 0-10 4.477-10 10v79.999c0 5.523 4.477 10 10 10 5.522 0 10-4.477 10-10V216c0-5.523-4.478-10-10-10zM446.001 206h-49.75c-5.522 0-10 4.477-10 10s4.477 10 10 10h14.875v69.999c0 5.523 4.478 10 10 10s10-4.477 10-10V226h14.875c5.522 0 10-4.477 10-10s-4.478-10-10-10z"/><path d="M501.999 146H92.006a10 10 0 0 0-7.732 3.659L2.267 249.657a10 10 0 0 0 0 12.682L84.274 362.34a10 10 0 0 0 7.732 3.659h409.993c5.523 0 10-4.477 10-10V156c0-5.523-4.478-10-10-10zm-10 200H96.738l-73.807-90.001L96.737 166h395.262v180z"/><path d="M72.066 260.723l-.149-.183c-3.496-4.273-9.798-4.905-14.071-1.407-4.274 3.497-4.904 9.797-1.407 14.072l.149.183a9.98 9.98 0 0 0 7.745 3.667c2.227 0 4.469-.74 6.326-2.261 4.275-3.496 4.904-9.797 1.407-14.071zM116.3 314.658l-26.021-31.73c-3.502-4.27-9.802-4.893-14.073-1.391s-4.894 9.803-1.392 14.073l26.021 31.73a9.98 9.98 0 0 0 7.738 3.659c2.23 0 4.476-.743 6.335-2.268 4.271-3.502 4.894-9.803 1.392-14.073z"/></symbol></svg>