<svg id="Слой_1" xmlns="http://www.w3.org/2000/svg" viewBox="0 0 420 82"><style>.st0{opacity:.3}.st1,.st2{fill:#fff}.st2{display:none;opacity:.3}</style><switch><g><g class="st0"><path class="st1" d="M420.3 19.5c-70 20.3-98.2 60.7-210.3 60.8C97.9 80.4 69.6 40.1-.3 19.8V82h420.5V19.5z"/></g><g class="st0"><path class="st1" d="M411.1 10C299.7 21.5 255.7 80.2 120.5 80.3 64.8 80.3 29.7 70.4 0 57.9V82h420.2V10h-9.1z"/></g><g class="st0"><path class="st1" d="M420.3 49.2c-34.3 16.2-71.5 31-139.6 31.1-137.3.1-149.2-60-264.9-70.3H-.3v72h420.5V49.2z"/></g><path class="st2" d="M439.5 6.4C320 0 304.6-55.8 188.8-64H130C79.6-60.4 48.2-47.9 19-34.3V8h420.5V6.4z"/></g></switch></svg>